<svg width="1920" height="900" viewBox="0 0 1920 900" fill="none" xmlns="http://www.w3.org/2000/svg">
<rect width="1920" height="900" fill="#3A282E"/>
<path d="M0 0H174L346.5 300.5L0 900V0Z" fill="#311E25"/>
<path d="M1920 0H1795L1596.5 342L1920 900V0Z" fill="#311E25"/>
<path d="M519 0H808L960 263L643.5 810.5L346.5 300.5L519 0Z" fill="#423037"/>
<path d="M1132.5 0H1421.5L1596.5 342L1302.5 855L960 263L1132.5 0Z" fill="#3F2C33"/>
<path d="M346.5 300.5L0 900H592.5L643.5 810.5L346.5 300.5Z" fill="#39272E"/>
<path d="M960 263L643.5 810.5L694.5 900H1275L1302.5 855L960 263Z" fill="#46353C"/>
<path d="M1596.5 342L1920 900H1328L1302.5 855L1596.5 342Z" fill="#36232A"/>
<path d="M592.5 900L643.5 810.5L694.5 900H592.5Z" fill="#3E2C33"/>
</svg>
